inDegrees=yes
name=ik_lifting_orientations
DataType=double
version=3
OpenSimVersion=4.5-2024-01-10-34fd6af
endheader
time	pelvis_tilt	pelvis_list	pelvis_rotation	pelvis_tx	pelvis_ty	pelvis_tz	hip_flexion_r	hip_adduction_r	hip_rotation_r	knee_angle_r	knee_angle_r_beta	ankle_angle_r	subtalar_angle_r	mtp_angle_r	hip_flexion_l	hip_adduction_l	hip_rotation_l	knee_angle_l	knee_angle_l_beta	ankle_angle_l	subtalar_angle_l	mtp_angle_l	lumbar_extension	lumbar_bending	lumbar_rotation	arm_flex_r	arm_add_r	arm_rot_r	elbow_flex_r	pro_sup_r	wrist_flex_r	wrist_dev_r	arm_flex_l	arm_add_l	arm_rot_l	elbow_flex_l	pro_sup_l	wrist_flex_l	wrist_dev_l
4.84	-0.06331270073953095	4.366833184433652	-89.95020998520495	0	0.9400000003403366	0	44.675021527026	-10.14424341025657	0	59.63887460005716	1.040894723955014	-5.033173373452065	0	0	44.675021527026	-10.14424341025657	0	59.63887460005716	1.040894723955014	-5.033173373452065	0	0	4.366695035378066	0.06034230016964701	0.02312779575516212	2.609647290362915	-1.430850634482347	-5.951057248370485	0.02816468971864933	-4.580274718624841	0	0	0	-11.12469572120645	0	76.77699443264031	4.580064476140898	0	0
4.85	-0.06338756797868748	4.153853084507416	-89.94729081992577	0	0.9400000003403366	0	44.67511853508773	-10.14409228014579	0	59.63895892187401	1.040896195648349	-5.033127997324101	0	0	44.67511853508773	-10.14409228014579	0	59.63895892187401	1.040896195648349	-5.033127997324101	0	0	4.15198061280115	0.05918318281338664	0.01847110753905134	2.648332596996698	-1.432727305301555	-5.980721894404344	0.02783130345817908	-4.57932247428585	0	0	0	-11.12528711255435	0	76.77646375687303	4.579112231795007	0	0
4.86	-0.05616246612206772	3.927958289746188	-89.94565194355724	0	0.9400000003403366	0	44.67519248101659	-10.1439772214126	0	59.63902323162168	1.040897318065187	-5.033093464951592	0	0	44.67519248101659	-10.1439772214126	0	59.63902323162168	1.040897318065187	-5.033093464951592	0	0	3.932120007383092	0.05979597732315205	0.0185048294580305	2.617611354800493	-1.491644123106704	-5.875853993601597	0.0282613704251636	-4.578596424834879	0	0	0	-11.12573811746878	0	76.77605924126108	4.578386182338772	0	0
4.87	-0.0616103554675149	4.119940344549522	-89.95020608690957	0	0.9400000003403366	0	44.67524772280721	-10.14389174786976	0	59.63907147923717	1.040898160144934	-5.033067842075823	0	0	44.67524772280721	-10.14389174786976	0	59.63907147923717	1.040898160144934	-5.033067842075823	0	0	4.106652211184738	0.05625937867203532	0.02404689694568144	2.681247572560566	-1.579688816240694	-5.873799102381029	0.02785801455043788	-4.578053126739972	0	0	0	-11.12607608613185	0	76.77575704675048	4.577842884239921	0	0
4.88	-0.001604345218245193	3.682671250915536	-89.96633984980478	0	0.9400000003403366	0	44.67533008390468	-10.14376469071646	0	59.63914356791872	1.04089941832978	-5.0330297780826	0	0	44.67533008390468	-10.14376469071646	0	59.63914356791872	1.04089941832978	-5.0330297780826	0	0	3.688024403104574	0.004270120711024185	0.0386741295179566	2.632108415995547	-1.643298208661322	-5.715518612913254	0.02762002381456748	-4.577242417646419	0	0	0	-11.12658077771867	0	76.77530650008096	4.577032175140496	0	0
4.89	-0.05582105421973874	3.807577820336757	-89.95939420087593	0	0.9400000003403366	0	44.6753772046111	-10.14369185958974	0	59.63918472631988	1.040900136679395	-5.033007954915771	0	0	44.6753772046111	-10.14369185958974	0	59.63918472631988	1.040900136679395	-5.033007954915771	0	0	3.796473177803274	0.04405459402645653	0.04167221780719067	2.681636265317388	-1.686465970533463	-5.568568017577194	0.02702794076743101	-4.576778931801342	0	0	0	-11.12686911985619	0	76.77504873129526	4.576568689292057	0	0
4.9	-0.1139365074060607	4.053101075428367	-89.96752988491993	0	0.9400000003403366	0	44.675425949957	-10.14361671770694	0	59.63922738604818	1.040900881232112	-5.032985452447932	0	0	44.675425949957	-10.14361671770694	0	59.63922738604818	1.040900881232112	-5.032985452447932	0	0	4.025920136974318	0.100514239941529	0.04953344995044188	2.750204082439581	-1.789769684264499	-5.30814753970088	0.02653776161068618	-4.576299099660813	0	0	0	-11.12716782786269	0	76.77478207572399	4.576088857148044	0	0
4.91	-0.06681243211153212	3.688186627380448	-89.96539622383018	0	0.9400000003403366	0	44.67553473979001	-10.14344945237016	0	59.63932277258932	1.040902546041317	-5.032935391014581	0	0	44.67553473979001	-10.14344945237016	0	59.63932277258932	1.040902546041317	-5.032935391014581	0	0	3.686869066265995	0.06462956317621092	0.03812385963961008	2.76253444377985	-1.771453864868332	-5.27026934311838	0.02634102797353399	-4.575227402198891	0	0	0	-11.12783542521419	0	76.77418695540855	4.575017159678347	0	0
4.92	-0.1917101463365909	3.378145690104597	-89.93204151892108	0	0.9400000003403366	0	44.67560826578128	-10.14333591491179	0	59.63938697283713	1.040903666547022	-5.032901388960417	0	0	44.67560826578128	-10.14333591491179	0	59.63938697283713	1.040903666547022	-5.032901388960417	0	0	3.388593491110565	0.1892409328738031	0.007082252034738324	2.761488390341072	-1.809771633725543	-5.397235831780022	0.02592011848274442	-4.57450418539131	0	0	0	-11.12828533375795	0	76.77378473952984	4.574293942865522	0	0
4.93	-0.1946101523075755	2.367558653595366	-89.92642383527377	0	0.9400000003403366	0	44.6761477582814	-10.14251414991946	0	59.63986063045314	1.040911933431948	-5.032656335345676	0	0	44.6761477582814	-10.14251414991946	0	59.63986063045314	1.040911933431948	-5.032656335345676	0	0	2.367820220063552	0.1928082779705027	8.3375571050769e-05	2.819351732864763	-1.78086143256583	-5.367876256232153	0.02568310859624917	-4.569183843493683	0	0	0	-11.13160147467902	0	76.77083353172956	4.56897360092931	0	0
4.94	-0.2523952036328	2.804229154311106	-89.92182910990904	0	0.9400000003403366	0	44.67623029540879	-10.14238742710826	0	59.63993279042313	1.040913192861013	-5.032618467196834	0	0	44.67623029540879	-10.14238742710826	0	59.63993279042313	1.040913192861013	-5.032618467196834	0	0	2.797950987950037	0.2484252706213704	-0.006147287807186926	2.786903639088573	-1.691183235818568	-5.433657495451226	0.0254852827763526	-4.568371263390919	0	0	0	-11.13210730144986	0	76.77038202322791	4.56816102082066	0	0
4.95	-0.1994331308591653	2.900931690242841	-89.94377169358999	0	0.9400000003403366	0	44.67627636380557	-10.14231666576412	0	59.63997303361928	1.040913895237287	-5.032597323274487	0	0	44.67627636380557	-10.14231666576412	0	59.63997303361928	1.040913895237287	-5.032597323274487	0	0	2.891571519133591	0.2072289417005311	0.01933611376132056	2.819969001591148	-1.654279670547999	-5.319595600834481	0.02523948994147828	-4.567917837995101	0	0	0	-11.13238948506895	0	76.77013001196504	4.567707595421552	0	0
4.96	-0.1363483659412521	2.986771999565321	-89.9556443845409	0	0.9400000003403366	0	44.67630447495175	-10.14227366025336	0	59.63999765771577	1.040914325008846	-5.03258448487767	0	0	44.67630447495175	-10.14227366025336	0	59.63999765771577	1.040914325008846	-5.03258448487767	0	0	2.980491439576813	0.1537854014095072	0.02745328849222423	2.874399584642385	-1.699252410534628	-5.31263527169853	0.02512112045208348	-4.567640853615423	0	0	0	-11.13256202218598	0	76.76997623405785	4.567430611039864	0	0
4.97	-0.07213027074411904	3.427038786072666	-89.98200929344156	0	0.9400000003403366	0	44.6763911161972	-10.14214068254976	0	59.64007336005864	1.040915646263981	-5.032544761715998	0	0	44.6763911161972	-10.14214068254976	0	59.64007336005864	1.040915646263981	-5.032544761715998	0	0	3.421820725106432	0.07209648679113832	0.05163760551747962	2.840090872249525	-1.791550984797366	-5.488382917137534	0.02491894585440376	-4.566787972794713	0	0	0	-11.13309286003085	0	76.76950227451306	4.566577730212966	0	0
4.98	-0.06922985246897233	3.377773289771828	-89.97103424407854	0	0.9400000003403366	0	44.67640660993774	-10.14211699676085	0	59.64008692910791	1.040915883088567	-5.032537693569416	0	0	44.67640660993774	-10.14211699676085	0	59.64008692910791	1.040915883088567	-5.032537693569416	0	0	3.414102912384677	0.07159787507314461	0.06908491538811855	2.804233028346816	-1.788901299505012	-5.434062974218382	0.0248035577566621	-4.566635309185918	0	0	0	-11.13318795293805	0	76.76941751829834	4.566425066603065	0	0
4.99	-0.1259506072199185	3.064724242747602	-89.96005354765416	0	0.9400000003403366	0	44.67651237780829	-10.14195414028966	0	59.64017903574759	1.040917490652692	-5.032489026465973	0	0	44.67651237780829	-10.14195414028966	0	59.64017903574759	1.040917490652692	-5.032489026465973	0	0	3.052304510521078	0.1244981228355174	0.02907795646456266	2.833245737007893	-1.784594219115845	-5.43054604209149	0.02452867839650241	-4.565595381650616	0	0	0	-11.13383451921123	0	76.7688389271954	4.565385139060229	0	0
5	-0.1940831445634577	2.632989097230096	-89.93456988541861	0	0.9400000003403366	0	44.67660470376968	-10.14181368241485	0	59.64026020371682	1.040918907301003	-5.032447152727933	0	0	44.67660470376968	-10.14181368241485	0	59.64026020371682	1.040918907301003	-5.032447152727933	0	0	2.629047333546088	0.1937745162690116	0.00690656800928494	2.835237525211229	-1.678950920071456	-5.382783853196002	0.02440826853780676	-4.56468429158443	0	0	0	-11.13440279166295	0	76.76833387406018	4.564474048987433	0	0
5.01	-0.2530553407324487	1.866429531446024	-89.91004371891755	0	0.9400000003403366	0	44.6767123816057	-10.14165384527679	0	59.64035665583974	1.040920590708118	-5.03239973695086	0	0	44.6767123816057	-10.14165384527679	0	59.64035665583974	1.040920590708118	-5.03239973695086	0	0	1.866803312465875	0.2514141933941347	-0.01673918941547558	2.845101505980628	-1.692313784755289	-5.350101956216638	0.02417626989506719	-4.563613976145747	0	0	0	-11.13507455483171	0	76.76774485394289	4.563403733540967	0	0
5.02	-0.3076290725679836	1.966288641670247	-89.90944362582849	0	0.9400000003403366	0	44.67674045622463	-10.14161102814134	0	59.64038125266044	1.040921020003625	-5.032386971876883	0	0	44.67674045622463	-10.14161102814134	0	59.64038125266044	1.040921020003625	-5.032386971876883	0	0	1.961606198610298	0.2925643131261346	-0.01395095433732941	2.828228429367188	-1.655888721282628	-5.32734421600883	0.02413493444490146	-4.563337252422727	0	0	0	-11.13524696767799	0	76.76759127615756	4.56312700981594	0	0
5.03	-0.3163352698682082	2.301739932882791	-89.9218982035669	0	0.9400000003403366	0	44.67679006160451	-10.14153550048599	0	59.64042477480904	1.040921779608415	-5.032364461632964	0	0	44.67679006160451	-10.14153550048599	0	59.64042477480904	1.040921779608415	-5.032364461632964	0	0	2.270308042683334	0.3149475706980996	-0.003785152288994789	2.901720386334698	-1.558860292431889	-5.180811218484258	0.02381136933941913	-4.562848038656897	0	0	0	-11.13555192108822	0	76.76731991817955	4.56263779604656	0	0
5.04	-0.3119994349612684	1.80849859280222	-89.89358977739082	0	0.9400000003403366	0	44.67688075538693	-10.14139732191355	0	59.64050428527273	1.040923167327797	-5.032323277103555	0	0	44.67688075538693	-10.14139732191355	0	59.64050428527273	1.040923167327797	-5.032323277103555	0	0	1.809937661467565	0.3097908988456249	-0.03164599194637507	2.806594317428155	-1.501952511178848	-5.276199780771218	0.02400264171054908	-4.56195383562063	0	0	0	-11.13610919869909	0	76.76682379262134	4.561743593003819	0	0
5.05	-0.3116939212928909	1.833736661521369	-89.89447247003309	0	0.9400000003403366	0	44.67690038133131	-10.14136744426902	0	59.64052148750903	1.040923467563459	-5.032314375716322	0	0	44.67690038133131	-10.14136744426902	0	59.64052148750903	1.040923467563459	-5.032314375716322	0	0	1.837214581121938	0.3268355245105544	-0.04327991954163369	2.751680901354962	-1.438728259373835	-5.330619136682818	0.02426690447661628	-4.561760333281358	0	0	0	-11.13622978467725	0	76.76671643211023	4.561550090663141	0	0
